<?xml version="1.0" encoding="UTF-8" standalone="no"?>
<!DOCTYPE svg PUBLIC "-//W3C//DTD SVG 1.1//EN"
 "http://www.w3.org/Graphics/SVG/1.1/DTD/svg11.dtd">
<!-- Generated by graphviz version 2.47.3 (20210619.1520)
 -->
<!-- Title: dependencies Pages: 1 -->
<svg width="1276pt" height="247pt"
 viewBox="0.00 0.00 1276.00 246.80" xmlns="http://www.w3.org/2000/svg" xmlns:xlink="http://www.w3.org/1999/xlink">
<g id="graph0" class="graph" transform="scale(1 1) rotate(0) translate(4 242.8)">
<title>dependencies</title>
<polygon fill="white" stroke="transparent" points="-4,4 -4,-242.8 1272,-242.8 1272,4 -4,4"/>
<text text-anchor="middle" x="634" y="-8.2" font-family="sans-serif" font-size="14.00">dependencies</text>
<g id="clust1" class="cluster">
<title>cluster_AppModule</title>
<polygon fill="none" stroke="black" stroke-dasharray="1,5" points="8,-32.8 8,-230.8 1260,-230.8 1260,-32.8 8,-32.8"/>
</g>
<g id="clust11" class="cluster">
<title>cluster_AppModule_bootstrap</title>
<polygon fill="none" stroke="black" points="656,-170.8 656,-222.8 780,-222.8 780,-170.8 656,-170.8"/>
</g>
<g id="clust9" class="cluster">
<title>cluster_AppModule_imports</title>
<polygon fill="none" stroke="black" points="998,-40.8 998,-92.8 1252,-92.8 1252,-40.8 998,-40.8"/>
</g>
<g id="clust2" class="cluster">
<title>cluster_AppModule_declarations</title>
<polygon fill="none" stroke="black" points="16,-40.8 16,-92.8 990,-92.8 990,-40.8 16,-40.8"/>
</g>
<!-- AppComponent -->
<g id="node1" class="node">
<title>AppComponent</title>
<polygon fill="#ffffb3" stroke="black" points="981.94,-84.8 876.06,-84.8 876.06,-48.8 981.94,-48.8 981.94,-84.8"/>
<text text-anchor="middle" x="929" y="-62.6" font-family="Times,serif" font-size="14.00">AppComponent</text>
</g>
<!-- AppModule -->
<g id="node7" class="node">
<title>AppModule</title>
<polygon fill="#8dd3c7" stroke="black" points="759.66,-149.8 756.66,-153.8 735.66,-153.8 732.66,-149.8 676.34,-149.8 676.34,-113.8 759.66,-113.8 759.66,-149.8"/>
<text text-anchor="middle" x="718" y="-127.6" font-family="Times,serif" font-size="14.00">AppModule</text>
</g>
<!-- AppComponent&#45;&gt;AppModule -->
<g id="edge1" class="edge">
<title>AppComponent&#45;&gt;AppModule</title>
<path fill="none" stroke="black" d="M929,-84.83C929,-101.2 929,-122.8 929,-122.8 929,-122.8 769.69,-122.8 769.69,-122.8"/>
<polygon fill="black" stroke="black" points="769.69,-119.3 759.69,-122.8 769.69,-126.3 769.69,-119.3"/>
</g>
<!-- BannerComponent -->
<g id="node2" class="node">
<title>BannerComponent</title>
<polygon fill="#ffffb3" stroke="black" points="857.76,-84.8 736.24,-84.8 736.24,-48.8 857.76,-48.8 857.76,-84.8"/>
<text text-anchor="middle" x="797" y="-62.6" font-family="Times,serif" font-size="14.00">BannerComponent</text>
</g>
<!-- BannerComponent&#45;&gt;AppModule -->
<g id="edge2" class="edge">
<title>BannerComponent&#45;&gt;AppModule</title>
<path fill="none" stroke="black" d="M747.97,-84.91C747.97,-84.91 747.97,-103.79 747.97,-103.79"/>
<polygon fill="black" stroke="black" points="744.47,-103.79 747.97,-113.79 751.47,-103.79 744.47,-103.79"/>
</g>
<!-- GameSessionComponent -->
<g id="node3" class="node">
<title>GameSessionComponent</title>
<polygon fill="#ffffb3" stroke="black" points="717.54,-84.8 560.46,-84.8 560.46,-48.8 717.54,-48.8 717.54,-84.8"/>
<text text-anchor="middle" x="639" y="-62.6" font-family="Times,serif" font-size="14.00">GameSessionComponent</text>
</g>
<!-- GameSessionComponent&#45;&gt;AppModule -->
<g id="edge3" class="edge">
<title>GameSessionComponent&#45;&gt;AppModule</title>
<path fill="none" stroke="black" d="M696.97,-84.91C696.97,-84.91 696.97,-103.79 696.97,-103.79"/>
<polygon fill="black" stroke="black" points="693.47,-103.79 696.97,-113.79 700.47,-103.79 693.47,-103.79"/>
</g>
<!-- GameSessionCreatorComponent -->
<g id="node4" class="node">
<title>GameSessionCreatorComponent</title>
<polygon fill="#ffffb3" stroke="black" points="541.51,-84.8 342.49,-84.8 342.49,-48.8 541.51,-48.8 541.51,-84.8"/>
<text text-anchor="middle" x="442" y="-62.6" font-family="Times,serif" font-size="14.00">GameSessionCreatorComponent</text>
</g>
<!-- GameSessionCreatorComponent&#45;&gt;AppModule -->
<g id="edge4" class="edge">
<title>GameSessionCreatorComponent&#45;&gt;AppModule</title>
<path fill="none" stroke="black" d="M442,-84.83C442,-101.2 442,-122.8 442,-122.8 442,-122.8 666.08,-122.8 666.08,-122.8"/>
<polygon fill="black" stroke="black" points="666.08,-126.3 676.08,-122.8 666.08,-119.3 666.08,-126.3"/>
</g>
<!-- GameboardComponent -->
<g id="node5" class="node">
<title>GameboardComponent</title>
<polygon fill="#ffffb3" stroke="black" points="324.13,-84.8 177.87,-84.8 177.87,-48.8 324.13,-48.8 324.13,-84.8"/>
<text text-anchor="middle" x="251" y="-62.6" font-family="Times,serif" font-size="14.00">GameboardComponent</text>
</g>
<!-- GameboardComponent&#45;&gt;AppModule -->
<g id="edge5" class="edge">
<title>GameboardComponent&#45;&gt;AppModule</title>
<path fill="none" stroke="black" d="M251,-84.91C251,-104.14 251,-131.8 251,-131.8 251,-131.8 666.15,-131.8 666.15,-131.8"/>
<polygon fill="black" stroke="black" points="666.15,-135.3 676.15,-131.8 666.15,-128.3 666.15,-135.3"/>
</g>
<!-- MessagesComponent -->
<g id="node6" class="node">
<title>MessagesComponent</title>
<polygon fill="#ffffb3" stroke="black" points="159.75,-84.8 24.25,-84.8 24.25,-48.8 159.75,-48.8 159.75,-84.8"/>
<text text-anchor="middle" x="92" y="-62.6" font-family="Times,serif" font-size="14.00">MessagesComponent</text>
</g>
<!-- MessagesComponent&#45;&gt;AppModule -->
<g id="edge6" class="edge">
<title>MessagesComponent&#45;&gt;AppModule</title>
<path fill="none" stroke="black" d="M92,-85.09C92,-107.01 92,-140.8 92,-140.8 92,-140.8 665.95,-140.8 665.95,-140.8"/>
<polygon fill="black" stroke="black" points="665.95,-144.3 675.95,-140.8 665.95,-137.3 665.95,-144.3"/>
</g>
<!-- AppComponent  -->
<g id="node10" class="node">
<title>AppComponent </title>
<polygon fill="#80b1d3" stroke="black" points="772.44,-214.8 663.56,-214.8 663.56,-178.8 772.44,-178.8 772.44,-214.8"/>
<text text-anchor="middle" x="718" y="-192.6" font-family="Times,serif" font-size="14.00">AppComponent </text>
</g>
<!-- AppModule&#45;&gt;AppComponent  -->
<g id="edge9" class="edge">
<title>AppModule&#45;&gt;AppComponent </title>
<path fill="none" stroke="black" stroke-dasharray="1,5" d="M718,-149.91C718,-149.91 718,-168.79 718,-168.79"/>
<polygon fill="black" stroke="black" points="714.5,-168.79 718,-178.79 721.5,-168.79 714.5,-168.79"/>
</g>
<!-- !environment -->
<g id="node8" class="node">
<title>!environment</title>
<polygon fill="#8dd3c7" stroke="black" points="1243.92,-84.8 1240.92,-88.8 1219.92,-88.8 1216.92,-84.8 1152.08,-84.8 1152.08,-48.8 1243.92,-48.8 1243.92,-84.8"/>
<text text-anchor="middle" x="1198" y="-62.6" font-family="Times,serif" font-size="14.00">!environment</text>
</g>
<!-- !environment&#45;&gt;AppModule -->
<g id="edge7" class="edge">
<title>!environment&#45;&gt;AppModule</title>
<path fill="none" stroke="black" d="M1198,-85.09C1198,-107.01 1198,-140.8 1198,-140.8 1198,-140.8 769.76,-140.8 769.76,-140.8"/>
<polygon fill="black" stroke="black" points="769.76,-137.3 759.76,-140.8 769.76,-144.3 769.76,-137.3"/>
</g>
<!-- AppRoutingModule -->
<g id="node9" class="node">
<title>AppRoutingModule</title>
<polygon fill="#8dd3c7" stroke="black" points="1134.27,-84.8 1131.27,-88.8 1110.27,-88.8 1107.27,-84.8 1005.73,-84.8 1005.73,-48.8 1134.27,-48.8 1134.27,-84.8"/>
<text text-anchor="middle" x="1070" y="-62.6" font-family="Times,serif" font-size="14.00">AppRoutingModule</text>
</g>
<!-- AppRoutingModule&#45;&gt;AppModule -->
<g id="edge8" class="edge">
<title>AppRoutingModule&#45;&gt;AppModule</title>
<path fill="none" stroke="black" d="M1070,-84.91C1070,-104.14 1070,-131.8 1070,-131.8 1070,-131.8 769.76,-131.8 769.76,-131.8"/>
<polygon fill="black" stroke="black" points="769.76,-128.3 759.76,-131.8 769.76,-135.3 769.76,-128.3"/>
</g>
</g>
</svg>
