<?xml version="1.0" encoding="UTF-8" standalone="no"?>
<!DOCTYPE svg PUBLIC "-//W3C//DTD SVG 1.1//EN"
 "http://www.w3.org/Graphics/SVG/1.1/DTD/svg11.dtd">
<!-- Generated by graphviz version 2.47.3 (20210619.1520)
 -->
<!-- Title: dependencies Pages: 1 -->
<svg width="1276pt" height="247pt"
 viewBox="0.00 0.00 1276.00 246.80" xmlns="http://www.w3.org/2000/svg" xmlns:xlink="http://www.w3.org/1999/xlink">
<g id="graph0" class="graph" transform="scale(1 1) rotate(0) translate(4 242.8)">
<title>dependencies</title>
<polygon fill="white" stroke="transparent" points="-4,4 -4,-242.8 1272,-242.8 1272,4 -4,4"/>
<text text-anchor="middle" x="634" y="-8.2" font-family="sans-serif" font-size="14.00">dependencies</text>
<g id="clust1" class="cluster">
<title>cluster_AppModule</title>
<polygon fill="none" stroke="black" stroke-dasharray="1,5" points="8,-32.8 8,-230.8 1260,-230.8 1260,-32.8 8,-32.8"/>
</g>
<g id="clust2" class="cluster">
<title>cluster_AppModule_declarations</title>
<polygon fill="none" stroke="black" points="278,-40.8 278,-92.8 1252,-92.8 1252,-40.8 278,-40.8"/>
</g>
<g id="clust9" class="cluster">
<title>cluster_AppModule_imports</title>
<polygon fill="none" stroke="black" points="16,-40.8 16,-92.8 270,-92.8 270,-40.8 16,-40.8"/>
</g>
<g id="clust11" class="cluster">
<title>cluster_AppModule_bootstrap</title>
<polygon fill="none" stroke="black" points="546,-170.8 546,-222.8 670,-222.8 670,-170.8 546,-170.8"/>
</g>
<!-- AppComponent -->
<g id="node1" class="node">
<title>AppComponent</title>
<polygon fill="#ffffb3" stroke="black" points="1243.94,-84.8 1138.06,-84.8 1138.06,-48.8 1243.94,-48.8 1243.94,-84.8"/>
<text text-anchor="middle" x="1191" y="-62.6" font-family="Times,serif" font-size="14.00">AppComponent</text>
</g>
<!-- AppModule -->
<g id="node7" class="node">
<title>AppModule</title>
<polygon fill="#8dd3c7" stroke="black" points="649.66,-149.8 646.66,-153.8 625.66,-153.8 622.66,-149.8 566.34,-149.8 566.34,-113.8 649.66,-113.8 649.66,-149.8"/>
<text text-anchor="middle" x="608" y="-127.6" font-family="Times,serif" font-size="14.00">AppModule</text>
</g>
<!-- AppComponent&#45;&gt;AppModule -->
<g id="edge1" class="edge">
<title>AppComponent&#45;&gt;AppModule</title>
<path fill="none" stroke="black" d="M1191,-85.09C1191,-107.01 1191,-140.8 1191,-140.8 1191,-140.8 659.93,-140.8 659.93,-140.8"/>
<polygon fill="black" stroke="black" points="659.93,-137.3 649.93,-140.8 659.93,-144.3 659.93,-137.3"/>
</g>
<!-- BannerComponent -->
<g id="node2" class="node">
<title>BannerComponent</title>
<polygon fill="#ffffb3" stroke="black" points="1119.76,-84.8 998.24,-84.8 998.24,-48.8 1119.76,-48.8 1119.76,-84.8"/>
<text text-anchor="middle" x="1059" y="-62.6" font-family="Times,serif" font-size="14.00">BannerComponent</text>
</g>
<!-- BannerComponent&#45;&gt;AppModule -->
<g id="edge2" class="edge">
<title>BannerComponent&#45;&gt;AppModule</title>
<path fill="none" stroke="black" d="M1059,-84.91C1059,-104.14 1059,-131.8 1059,-131.8 1059,-131.8 660.02,-131.8 660.02,-131.8"/>
<polygon fill="black" stroke="black" points="660.02,-128.3 650.02,-131.8 660.02,-135.3 660.02,-128.3"/>
</g>
<!-- GameSessionComponent -->
<g id="node3" class="node">
<title>GameSessionComponent</title>
<polygon fill="#ffffb3" stroke="black" points="979.54,-84.8 822.46,-84.8 822.46,-48.8 979.54,-48.8 979.54,-84.8"/>
<text text-anchor="middle" x="901" y="-62.6" font-family="Times,serif" font-size="14.00">GameSessionComponent</text>
</g>
<!-- GameSessionComponent&#45;&gt;AppModule -->
<g id="edge3" class="edge">
<title>GameSessionComponent&#45;&gt;AppModule</title>
<path fill="none" stroke="black" d="M901,-84.83C901,-101.2 901,-122.8 901,-122.8 901,-122.8 659.67,-122.8 659.67,-122.8"/>
<polygon fill="black" stroke="black" points="659.67,-119.3 649.67,-122.8 659.67,-126.3 659.67,-119.3"/>
</g>
<!-- GameSessionCreatorComponent -->
<g id="node4" class="node">
<title>GameSessionCreatorComponent</title>
<polygon fill="#ffffb3" stroke="black" points="803.51,-84.8 604.49,-84.8 604.49,-48.8 803.51,-48.8 803.51,-84.8"/>
<text text-anchor="middle" x="704" y="-62.6" font-family="Times,serif" font-size="14.00">GameSessionCreatorComponent</text>
</g>
<!-- GameSessionCreatorComponent&#45;&gt;AppModule -->
<g id="edge4" class="edge">
<title>GameSessionCreatorComponent&#45;&gt;AppModule</title>
<path fill="none" stroke="black" d="M627.04,-84.91C627.04,-84.91 627.04,-103.79 627.04,-103.79"/>
<polygon fill="black" stroke="black" points="623.54,-103.79 627.04,-113.79 630.54,-103.79 623.54,-103.79"/>
</g>
<!-- GameboardComponent -->
<g id="node5" class="node">
<title>GameboardComponent</title>
<polygon fill="#ffffb3" stroke="black" points="586.13,-84.8 439.87,-84.8 439.87,-48.8 586.13,-48.8 586.13,-84.8"/>
<text text-anchor="middle" x="513" y="-62.6" font-family="Times,serif" font-size="14.00">GameboardComponent</text>
</g>
<!-- GameboardComponent&#45;&gt;AppModule -->
<g id="edge5" class="edge">
<title>GameboardComponent&#45;&gt;AppModule</title>
<path fill="none" stroke="black" d="M576.24,-84.91C576.24,-84.91 576.24,-103.79 576.24,-103.79"/>
<polygon fill="black" stroke="black" points="572.74,-103.79 576.24,-113.79 579.74,-103.79 572.74,-103.79"/>
</g>
<!-- MessagesComponent -->
<g id="node6" class="node">
<title>MessagesComponent</title>
<polygon fill="#ffffb3" stroke="black" points="421.75,-84.8 286.25,-84.8 286.25,-48.8 421.75,-48.8 421.75,-84.8"/>
<text text-anchor="middle" x="354" y="-62.6" font-family="Times,serif" font-size="14.00">MessagesComponent</text>
</g>
<!-- MessagesComponent&#45;&gt;AppModule -->
<g id="edge6" class="edge">
<title>MessagesComponent&#45;&gt;AppModule</title>
<path fill="none" stroke="black" d="M354,-84.83C354,-101.2 354,-122.8 354,-122.8 354,-122.8 556.34,-122.8 556.34,-122.8"/>
<polygon fill="black" stroke="black" points="556.34,-126.3 566.34,-122.8 556.34,-119.3 556.34,-126.3"/>
</g>
<!-- AppComponent  -->
<g id="node10" class="node">
<title>AppComponent </title>
<polygon fill="#80b1d3" stroke="black" points="662.44,-214.8 553.56,-214.8 553.56,-178.8 662.44,-178.8 662.44,-214.8"/>
<text text-anchor="middle" x="608" y="-192.6" font-family="Times,serif" font-size="14.00">AppComponent </text>
</g>
<!-- AppModule&#45;&gt;AppComponent  -->
<g id="edge9" class="edge">
<title>AppModule&#45;&gt;AppComponent </title>
<path fill="none" stroke="black" stroke-dasharray="1,5" d="M608,-149.91C608,-149.91 608,-168.79 608,-168.79"/>
<polygon fill="black" stroke="black" points="604.5,-168.79 608,-178.79 611.5,-168.79 604.5,-168.79"/>
</g>
<!-- !environment -->
<g id="node8" class="node">
<title>!environment</title>
<polygon fill="#8dd3c7" stroke="black" points="261.92,-84.8 258.92,-88.8 237.92,-88.8 234.92,-84.8 170.08,-84.8 170.08,-48.8 261.92,-48.8 261.92,-84.8"/>
<text text-anchor="middle" x="216" y="-62.6" font-family="Times,serif" font-size="14.00">!environment</text>
</g>
<!-- !environment&#45;&gt;AppModule -->
<g id="edge7" class="edge">
<title>!environment&#45;&gt;AppModule</title>
<path fill="none" stroke="black" d="M216,-84.91C216,-104.14 216,-131.8 216,-131.8 216,-131.8 556.05,-131.8 556.05,-131.8"/>
<polygon fill="black" stroke="black" points="556.05,-135.3 566.05,-131.8 556.05,-128.3 556.05,-135.3"/>
</g>
<!-- AppRoutingModule -->
<g id="node9" class="node">
<title>AppRoutingModule</title>
<polygon fill="#8dd3c7" stroke="black" points="152.27,-84.8 149.27,-88.8 128.27,-88.8 125.27,-84.8 23.73,-84.8 23.73,-48.8 152.27,-48.8 152.27,-84.8"/>
<text text-anchor="middle" x="88" y="-62.6" font-family="Times,serif" font-size="14.00">AppRoutingModule</text>
</g>
<!-- AppRoutingModule&#45;&gt;AppModule -->
<g id="edge8" class="edge">
<title>AppRoutingModule&#45;&gt;AppModule</title>
<path fill="none" stroke="black" d="M88,-85.09C88,-107.01 88,-140.8 88,-140.8 88,-140.8 556.33,-140.8 556.33,-140.8"/>
<polygon fill="black" stroke="black" points="556.33,-144.3 566.33,-140.8 556.33,-137.3 556.33,-144.3"/>
</g>
</g>
</svg>
